<svg width="15" height="16" viewBox="0 0 15 16" fill="none" xmlns="http://www.w3.org/2000/svg">
<path fill-rule="evenodd" clip-rule="evenodd" d="M7.49996 0C7.83721 0 8.11061 0.249888 8.11061 0.55814V1.7391C9.02424 1.80603 9.79763 2.02584 10.4443 2.37706C11.2313 2.80447 11.7931 3.40613 12.1889 4.08948C12.9675 5.43377 13.121 7.12583 13.121 8.57245C13.121 9.88944 13.5529 10.9428 13.9859 11.6683C14.2023 12.031 14.4178 12.3096 14.5766 12.495C14.6558 12.5876 14.7206 12.6566 14.7639 12.7008C14.7855 12.7229 14.8016 12.7387 14.8115 12.7482L14.8211 12.7574L14.8225 12.7587C14.9969 12.9183 15.0479 13.1572 14.9534 13.3656C14.8589 13.5742 14.6362 13.7102 14.3893 13.7102H10.5467C10.4952 13.9474 10.4035 14.2445 10.2382 14.5466C10.0454 14.899 9.74661 15.2684 9.28701 15.5485C8.82358 15.8309 8.23312 16 7.49996 16C6.76681 16 6.17635 15.8309 5.71292 15.5485C5.25331 15.2684 4.95453 14.899 4.76174 14.5466C4.59647 14.2445 4.50475 13.9474 4.45326 13.7102H0.61066C0.363679 13.7102 0.141016 13.5742 0.0465002 13.3656C-0.0479561 13.1572 0.00416265 12.9173 0.178541 12.7577L0.188464 12.7482C0.198305 12.7387 0.21447 12.7229 0.236065 12.7008C0.27928 12.6566 0.344076 12.5876 0.423355 12.495C0.582125 12.3096 0.797603 12.031 1.01403 11.6683C1.44699 10.9428 1.87892 9.88944 1.87892 8.57245C1.87892 7.12583 2.03241 5.43377 2.81105 4.08948C3.20685 3.40613 3.76866 2.80447 4.55561 2.37706C5.20229 2.02584 5.97569 1.80603 6.88932 1.7391V0.55814C6.88932 0.249888 7.16271 0 7.49996 0Z" fill="#BDF15D"/>
</svg>
